<svg id="tram_T3a_carto_RVB" xmlns="http://www.w3.org/2000/svg" width="311.7" height="311.8" viewBox="0 0 311.7 311.8">
	<path id="Tracé_17" data-name="Tracé 17" d="M28.3,311.8A28.338,28.338,0,0,1,0,283.5V28.3A28.338,28.338,0,0,1,28.3,0H283.4a28.338,28.338,0,0,1,28.3,28.3V283.4a28.338,28.338,0,0,1-28.3,28.3H28.3Z" fill="#fff"/>
	<path id="Tracé_18" data-name="Tracé 18" d="M171,214.6c-15.6,0-24.3-3.9-31.6-8.2l8.5-16.9a38.241,38.241,0,0,0,21.5,7.1c12.7,0,20.6-7.4,20.6-16.7,0-12.5-9.6-16.9-20.7-16.9H158V145h11.4c10.7,0,17.3-5.6,17.3-13.9,0-7-5.3-13.3-16.7-13.3a30.319,30.319,0,0,0-20.3,7.9l-7.9-16.1c9.3-6.2,19.3-9.7,33.1-9.7,22.3,0,35,13.3,35,27.8,0,11.3-6,20.3-17.6,24.6v.3c12.1,2.3,21.2,11.6,21.2,26.9,0,19.2-17.1,35.1-42.5,35.1m101.8-24c-5.8,0-8.7-3.6-9.7-8.5-5.1,6.1-9.9,9.1-18.4,9.1-11,0-18.4-7.9-18.4-18.5,0-16.9,17.7-20.2,31.5-20.2,2.6,0,4.1-.1,4.1-2.2v-4.1c0-4.4-2.8-8.6-11.4-8.6a24.309,24.309,0,0,0-15.4,5.7l-5.7-11.7c6.9-4.4,14.5-6.4,25.2-6.4,8.7,0,22.9,3.1,22.9,21.1V175c0,2.2.2,4.1,2.2,4.1a8.76,8.76,0,0,0,2.7-.6l.9,10.6a56.192,56.192,0,0,1-10.5,1.5m-11.1-28c-1.8-.1-3.5-.1-4.9-.1-5.7,0-14.3,1.4-14.3,8.9a7.567,7.567,0,0,0,7.8,7.8,11.67,11.67,0,0,0,8.7-3.4,9.878,9.878,0,0,0,2.7-7.3v-5.9ZM84.1,122.4V212H60V122.4H26.4V102.8h91.3v19.6Z"/>
	<path id="Tracé_19" data-name="Tracé 19" d="M283.5,57.4H28.3A14.19,14.19,0,0,1,14.1,43.2V29.1A14.19,14.19,0,0,1,28.3,14.9H283.4a14.19,14.19,0,0,1,14.2,14.2V43.3a14.084,14.084,0,0,1-14.1,14.1m14.1,226.8V270a14.19,14.19,0,0,0-14.2-14.2H28.3A14.19,14.19,0,0,0,14.1,270v14.2a14.19,14.19,0,0,0,14.2,14.2H283.4a14.19,14.19,0,0,0,14.2-14.2" fill="#ff5a00"/>
</svg>
