<svg id="tram_T6_carto_RVB" xmlns="http://www.w3.org/2000/svg" width="311.7" height="311.8" viewBox="0 0 311.7 311.8">
	<path id="Tracé_17" data-name="Tracé 17" d="M28.3,311.8A28.338,28.338,0,0,1,0,283.5V28.3A28.338,28.338,0,0,1,28.3,0H283.4a28.338,28.338,0,0,1,28.3,28.3V283.4a28.338,28.338,0,0,1-28.3,28.3H28.3Z" fill="#fff"/>
	<path id="Tracé_18" data-name="Tracé 18" d="M117.9,122.3v89.6H93.7V122.3H60.2V102.7h91.3v19.6H117.9Zm96.3,92.2c-29.9,0-40.5-20.7-40.5-49.6,0-37.9,17.8-65.1,52.7-65.1a71.086,71.086,0,0,1,16.4,1.9l-3.4,18.6a43.113,43.113,0,0,0-15-2.6c-15.3,0-26.4,12.2-28,34.2,3.7-3.2,10.8-7.4,22.6-7.4,18.1,0,32.6,11.9,32.6,32.3,0,21.6-14.5,37.7-37.4,37.7m-2.2-53c-7,0-12.5,2.6-14.7,6-1.2,1.9-1.2,6.2-1.2,9.4,0,10.4,6,20.4,17.2,20.4,10.8,0,16.4-8.8,16.4-18.2,0-10.2-6.8-17.6-17.7-17.6"/>
	<path id="Tracé_19" data-name="Tracé 19" d="M283.5,57.4H28.3A14.19,14.19,0,0,1,14.1,43.2V29.1A14.19,14.19,0,0,1,28.3,14.9H283.4a14.19,14.19,0,0,1,14.2,14.2V43.3a14.084,14.084,0,0,1-14.1,14.1m14.1,226.8V270a14.19,14.19,0,0,0-14.2-14.2H28.3A14.19,14.19,0,0,0,14.1,270v14.2a14.19,14.19,0,0,0,14.2,14.2H283.4a14.19,14.19,0,0,0,14.2-14.2" fill="#ff1400"/>
</svg>
