<?xml version="1.0" encoding="utf-8"?>
<!-- Generator: Adobe Illustrator 26.3.1, SVG Export Plug-In . SVG Version: 6.00 Build 0)  -->
<svg version="1.1" id="Layer_1" xmlns="http://www.w3.org/2000/svg" xmlns:xlink="http://www.w3.org/1999/xlink" x="0px" y="0px"
	 viewBox="0 0 311.8 311.8" style="enable-background:new 0 0 311.8 311.8;" xml:space="preserve">
<style type="text/css">
	.st0{fill:#FFFFFF;}
	.st1{fill:#FF5A00;}
</style>
<g>
	<path class="st0" d="M28.3,311.8C12.7,311.8,0,299.1,0,283.5V28.3C0,12.7,12.7,0,28.3,0h255.1c15.6,0,28.3,12.7,28.3,28.3v255.1
		c0,15.6-12.7,28.3-28.3,28.3H28.3z"/>
	<path d="M171,214.6c-15.6,0-24.3-3.9-31.6-8.2l8.5-16.9c4.6,3.2,12.2,7.1,21.5,7.1c12.7,0,20.6-7.4,20.6-16.7
		c0-12.5-9.6-16.9-20.7-16.9H158V145h11.4c10.7,0,17.3-5.6,17.3-13.9c0-7-5.3-13.3-16.7-13.3c-10.1,0-16.7,4.8-20.3,7.9l-7.9-16.1
		c9.3-6.2,19.3-9.7,33.1-9.7c22.3,0,35,13.3,35,27.8c0,11.3-6,20.3-17.6,24.6v0.3c12.1,2.3,21.2,11.6,21.2,26.9
		C213.5,198.7,196.4,214.6,171,214.6 M272.8,190.6c-5.8,0-8.7-3.6-9.7-8.5c-5.1,6.1-9.9,9.1-18.4,9.1c-11,0-18.4-7.9-18.4-18.5
		c0-16.9,17.7-20.2,31.5-20.2c2.6,0,4.1-0.1,4.1-2.2v-4.1c0-4.4-2.8-8.6-11.4-8.6c-7.2,0-12.7,3.4-15.4,5.7l-5.7-11.7
		c6.9-4.4,14.5-6.4,25.2-6.4c8.7,0,22.9,3.1,22.9,21.1v28.7c0,2.2,0.2,4.1,2.2,4.1c0.7,0,2-0.3,2.7-0.6l0.9,10.6
		C280.7,189.6,276.6,190.6,272.8,190.6 M261.7,162.6c-1.8-0.1-3.5-0.1-4.9-0.1c-5.7,0-14.3,1.4-14.3,8.9c0,4.5,3.3,7.8,7.8,7.8
		c3.6,0,6.6-1.2,8.7-3.4c1.9-2,2.7-4.3,2.7-7.3V162.6z M84.1,122.4V212H60v-89.6H26.4v-19.6h91.3v19.6H84.1z"/>
	<path class="st1" d="M283.5,57.4H28.3c-7.8,0-14.2-6.3-14.2-14.2V29.1c0-7.8,6.3-14.2,14.2-14.2h255.1c7.8,0,14.2,6.3,14.2,14.2
		v14.2C297.6,51.1,291.3,57.4,283.5,57.4 M297.6,284.2V270c0-7.8-6.3-14.2-14.2-14.2H28.3c-7.8,0-14.2,6.3-14.2,14.2v14.2
		c0,7.8,6.3,14.2,14.2,14.2h255.1C291.3,298.4,297.6,292,297.6,284.2"/>
</g>
</svg>
