<?xml version="1.0" encoding="utf-8"?>
<!-- Generator: Adobe Illustrator 26.3.1, SVG Export Plug-In . SVG Version: 6.00 Build 0)  -->
<svg version="1.1" id="Layer_1" xmlns="http://www.w3.org/2000/svg" xmlns:xlink="http://www.w3.org/1999/xlink" x="0px" y="0px"
	 viewBox="0 0 311.8 311.8" style="enable-background:new 0 0 311.8 311.8;" xml:space="preserve">
<style type="text/css">
	.st0{fill:#FFFFFF;}
	.st1{fill:#3C91DC;}
</style>
<g>
	<path class="st0" d="M28.3,311.8C12.7,311.8,0,299.1,0,283.5V28.3C0,12.7,12.7,0,28.3,0h255.1c15.6,0,28.3,12.7,28.3,28.3v255.1
		c0,15.6-12.7,28.3-28.3,28.3H28.3z"/>
	<path d="M118.8,121.5V211H94.7v-89.6H61.1v-19.6h91.3v19.6H118.8z M198,214c-6.2,0-11.8-0.8-16.4-1.9l3.4-18.6
		c2.9,1.2,8.7,2.6,15,2.6c15.3,0,26.4-12.2,28-34.2c-3.7,3.2-10.8,7.4-22.6,7.4c-18.1,0-32.6-11.9-32.6-32.3
		c0-21.8,14.5-37.9,37.4-37.9c29.9,0,40.5,20.7,40.5,49.6C250.7,186.7,232.9,214,198,214 M211.1,116.4c-10.8,0-16.4,8.8-16.4,18.3
		c0,10.2,6.8,17.6,17.6,17.6c7,0,12.5-2.6,14.7-6c1.2-1.9,1.2-6.2,1.2-9.4C228.3,126.4,222.2,116.4,211.1,116.4"/>
	<path class="st1" d="M283.5,56.5H28.3c-7.8,0-14.2-6.3-14.2-14.2V28.2c0-7.8,6.3-14.2,14.2-14.2h255.1c7.8,0,14.2,6.3,14.2,14.2
		v14.2C297.6,50.2,291.3,56.5,283.5,56.5 M297.6,283.3v-14.2c0-7.8-6.3-14.2-14.2-14.2H28.3c-7.8,0-14.2,6.3-14.2,14.2v14.2
		c0,7.8,6.3,14.2,14.2,14.2h255.1C291.3,297.5,297.6,291.1,297.6,283.3"/>
</g>
</svg>
