<?xml version="1.0" encoding="utf-8"?>
<!-- Generator: Adobe Illustrator 26.3.1, SVG Export Plug-In . SVG Version: 6.00 Build 0)  -->
<svg version="1.1" id="Layer_1" xmlns="http://www.w3.org/2000/svg" xmlns:xlink="http://www.w3.org/1999/xlink" x="0px" y="0px"
	 viewBox="0 0 311.8 311.8" style="enable-background:new 0 0 311.8 311.8;" xml:space="preserve">
<style type="text/css">
	.st0{fill:#FFFFFF;}
	.st1{fill:#6E6E00;}
</style>
<g>
	<path class="st0" d="M28.3,311.8C12.7,311.8,0,299.1,0,283.5V28.3C0,12.7,12.7,0,28.3,0h255.1c15.6,0,28.3,12.7,28.3,28.3v255.1
		c0,15.6-12.7,28.3-28.3,28.3H28.3z"/>
	<path d="M118.6,122.3v89.6H94.4v-89.6H60.9v-19.6h91.3v19.6H118.6z M212,214.8c-24.3,0-38.1-14.5-38.1-31.1
		c0-14.5,8.2-23.7,18.7-29.1c-9.4-5.9-15.3-13.3-15.3-24.6c0-18.1,16.4-30.6,35.1-30.6c19.2,0,35.1,9.4,35.1,28.2
		c0,10.2-5.3,18.9-15.5,25.1c10,4.8,18.9,14.1,18.9,28.5C250.9,201.8,234.4,214.8,212,214.8 M210.1,162.2
		c-7.1,2.8-14.2,10.5-14.2,19c0,9,5.9,17.5,16.4,17.5c10.4,0,16.1-7.3,16.1-15.9C228.4,172.9,219.4,166.9,210.1,162.2 M212.7,115.2
		c-8.5,0-13.9,5.3-13.9,12.8c0,9,9,14.5,15.9,17.5c5.7-2.6,11.9-9.7,11.9-16.5C226.7,121.4,221.7,115.2,212.7,115.2"/>
	<path class="st1" d="M283.5,57.4H28.3c-7.8,0-14.2-6.3-14.2-14.2V29.1c0-7.8,6.3-14.2,14.2-14.2h255.1c7.8,0,14.2,6.3,14.2,14.2
		v14.2C297.6,51.1,291.3,57.4,283.5,57.4 M297.6,284.2V270c0-7.8-6.3-14.2-14.2-14.2H28.3c-7.8,0-14.2,6.3-14.2,14.2v14.2
		c0,7.8,6.3,14.2,14.2,14.2h255.1C291.3,298.4,297.6,292,297.6,284.2"/>
</g>
</svg>
