<svg id="tram_T10_carto_RVB" xmlns="http://www.w3.org/2000/svg" width="311.7" height="311.8" viewBox="0 0 311.7 311.8">
	<path id="Tracé_17" data-name="Tracé 17" d="M28.3,311.8A28.338,28.338,0,0,1,0,283.5V28.3A28.338,28.338,0,0,1,28.3,0H283.4a28.338,28.338,0,0,1,28.3,28.3V283.4a28.338,28.338,0,0,1-28.3,28.3H28.3Z" fill="#fff"/>
	<path id="Tracé_18" data-name="Tracé 18" d="M81.6,121.6v89.6H57.5V121.6H23.9V102h91.3v19.6Zm88,89.6V125.4c-6.6,5.3-17.2,10.4-24.4,13.6l-7.4-16.7c11.4-4.8,25.2-12.1,36-20.3h19V211.2Zm78.2,2.9c-32.9,0-39.4-32.5-39.4-57.7s7.1-57.7,40.1-57.7c32.9,0,39.4,32.5,39.4,57.7s-7.1,57.7-40.1,57.7m.3-97c-15.8,0-16.2,28.2-16.2,39.3,0,11,.8,39.4,16.2,39.4,15.5,0,16.1-28.6,16.1-39.4,0-11.4-.4-39.3-16.1-39.3"/>
	<path id="Tracé_19" data-name="Tracé 19" d="M283.5,56.5H28.3A14.19,14.19,0,0,1,14.1,42.3V28.2A14.19,14.19,0,0,1,28.3,14H283.4a14.19,14.19,0,0,1,14.2,14.2V42.4a14.084,14.084,0,0,1-14.1,14.1m14.1,226.8V269.1a14.19,14.19,0,0,0-14.2-14.2H28.3a14.19,14.19,0,0,0-14.2,14.2v14.2a14.19,14.19,0,0,0,14.2,14.2H283.4a14.19,14.19,0,0,0,14.2-14.2" fill="#6e6e00"/>
</svg>
