<svg id="tram_T8_carto_RVB" xmlns="http://www.w3.org/2000/svg" width="311.7" height="311.8" viewBox="0 0 311.7 311.8">
	<path id="Tracé_17" data-name="Tracé 17" d="M28.3,311.8A28.338,28.338,0,0,1,0,283.5V28.3A28.338,28.338,0,0,1,28.3,0H283.4a28.338,28.338,0,0,1,28.3,28.3V283.4a28.338,28.338,0,0,1-28.3,28.3H28.3Z" fill="#fff"/>
	<path id="Tracé_18" data-name="Tracé 18" d="M118.6,122.3v89.6H94.4V122.3H60.9V102.7h91.3v19.6H118.6ZM212,214.8c-24.3,0-38.1-14.5-38.1-31.1,0-14.5,8.2-23.7,18.7-29.1-9.4-5.9-15.3-13.3-15.3-24.6,0-18.1,16.4-30.6,35.1-30.6,19.2,0,35.1,9.4,35.1,28.2,0,10.2-5.3,18.9-15.5,25.1,10,4.8,18.9,14.1,18.9,28.5,0,20.6-16.5,33.6-38.9,33.6m-1.9-52.6c-7.1,2.8-14.2,10.5-14.2,19,0,9,5.9,17.5,16.4,17.5,10.4,0,16.1-7.3,16.1-15.9,0-9.9-9-15.9-18.3-20.6m2.6-47c-8.5,0-13.9,5.3-13.9,12.8,0,9,9,14.5,15.9,17.5,5.7-2.6,11.9-9.7,11.9-16.5.1-7.6-4.9-13.8-13.9-13.8"/>
	<path id="Tracé_19" data-name="Tracé 19" d="M283.5,57.4H28.3A14.19,14.19,0,0,1,14.1,43.2V29.1A14.19,14.19,0,0,1,28.3,14.9H283.4a14.19,14.19,0,0,1,14.2,14.2V43.3a14.084,14.084,0,0,1-14.1,14.1m14.1,226.8V270a14.19,14.19,0,0,0-14.2-14.2H28.3A14.19,14.19,0,0,0,14.1,270v14.2a14.19,14.19,0,0,0,14.2,14.2H283.4a14.19,14.19,0,0,0,14.2-14.2" fill="#6e6e00"/>
</svg>
