<svg id="tram_T11_carto_RVB" xmlns="http://www.w3.org/2000/svg" width="311.7" height="311.8" viewBox="0 0 311.7 311.8">
	<path id="Tracé_17" data-name="Tracé 17" d="M28.3,311.8A28.338,28.338,0,0,1,0,283.5V28.3A28.338,28.338,0,0,1,28.3,0H283.4a28.338,28.338,0,0,1,28.3,28.3V283.4a28.338,28.338,0,0,1-28.3,28.3H28.3Z" fill="#fff"/>
	<path id="Tracé_18" data-name="Tracé 18" d="M95.2,121.3v89.6H71V121.3H37.5V101.7h91.3v19.6H95.2Zm87.9,89.6V125.1c-6.6,5.3-17.2,10.4-24.4,13.6L151.3,122c11.4-4.8,25.2-12.1,36-20.3h19V210.9Zm68.1,0V125.1c-6.6,5.3-17.2,10.4-24.4,13.6L219.4,122c11.4-4.8,25.2-12.1,36-20.3h19V210.9Z"/>
	<path id="Tracé_19" data-name="Tracé 19" d="M283.5,56.4H28.3A14.19,14.19,0,0,1,14.1,42.2V28.1A14.19,14.19,0,0,1,28.3,13.9H283.4a14.19,14.19,0,0,1,14.2,14.2V42.3a14.084,14.084,0,0,1-14.1,14.1m14.1,226.8V269a14.19,14.19,0,0,0-14.2-14.2H28.3A14.19,14.19,0,0,0,14.1,269v14.2a14.19,14.19,0,0,0,14.2,14.2H283.4a14.19,14.19,0,0,0,14.2-14.2" fill="#ff5a00"/>
</svg>
