<svg id="tram_T3b_carto_RVB" xmlns="http://www.w3.org/2000/svg" width="311.7" height="311.8" viewBox="0 0 311.7 311.8">
	<path id="Tracé_17" data-name="Tracé 17" d="M28.3,311.8A28.338,28.338,0,0,1,0,283.5V28.3A28.338,28.338,0,0,1,28.3,0H283.4a28.338,28.338,0,0,1,28.3,28.3V283.4a28.338,28.338,0,0,1-28.3,28.3H28.3Z" fill="#fff"/>
	<path id="Tracé_18" data-name="Tracé 18" d="M171,214.6c-15.6,0-24.3-3.9-31.6-8.2l8.5-16.9a38.241,38.241,0,0,0,21.5,7.1c12.7,0,20.6-7.4,20.6-16.7,0-12.5-9.6-16.9-20.7-16.9H158V145h11.4c10.7,0,17.3-5.6,17.3-13.9,0-7-5.3-13.3-16.7-13.3a30.319,30.319,0,0,0-20.3,7.9l-7.9-16.1c9.3-6.2,19.3-9.7,33.1-9.7,22.3,0,35,13.3,35,27.8,0,11.3-6,20.3-17.6,24.6v.3c12.1,2.3,21.2,11.6,21.2,26.9,0,19.2-17.1,35.1-42.5,35.1m86.5-23.2a21.185,21.185,0,0,1-13.3-4.8v2.8H228.3V103.1h16.4v32.2c4.2-6.1,9-10.1,16.9-10.1,16.3,0,23.1,17.4,23.1,32.4.1,14-7.3,33.8-27.2,33.8m-2.1-52a10.847,10.847,0,0,0-7.6,3.1c-2.8,2.7-3.1,4.4-3.1,8v21.1c0,4.3,2.6,8.2,10,8.2,10.5,0,13.1-11.3,13.1-19.8,0-8.4-2-20.6-12.4-20.6m-171.3-17V212H60V122.4H26.4V102.8h91.3v19.6Z"/>
	<path id="Tracé_19" data-name="Tracé 19" d="M283.5,57.4H28.3A14.19,14.19,0,0,1,14.1,43.2V29.1A14.19,14.19,0,0,1,28.3,14.9H283.4a14.19,14.19,0,0,1,14.2,14.2V43.3a14.084,14.084,0,0,1-14.1,14.1m14.1,226.8V270a14.19,14.19,0,0,0-14.2-14.2H28.3A14.19,14.19,0,0,0,14.1,270v14.2a14.19,14.19,0,0,0,14.2,14.2H283.4a14.19,14.19,0,0,0,14.2-14.2" fill="#00643c"/>
</svg>
