<svg id="tram_T13_carto_RVB" xmlns="http://www.w3.org/2000/svg" width="311.7" height="311.8" viewBox="0 0 311.7 311.8">
	<path id="Tracé_17" data-name="Tracé 17" d="M28.3,311.8A28.338,28.338,0,0,1,0,283.5V28.3A28.338,28.338,0,0,1,28.3,0H283.4a28.338,28.338,0,0,1,28.3,28.3V283.4a28.338,28.338,0,0,1-28.3,28.3H28.3Z" fill="#fff"/>
	<path id="Tracé_18" data-name="Tracé 18" d="M84.5,121.3v89.6H60.4V121.3H26.8V101.7H118v19.6H84.5Zm88,89.6V125.1c-6.6,5.3-17.2,10.4-24.4,13.6L140.7,122c11.4-4.8,25.2-12.1,36-20.3h19V210.9Zm70,2.6c-15.6,0-24.3-3.9-31.6-8.2l8.5-16.9a38.241,38.241,0,0,0,21.5,7.1c12.7,0,20.6-7.4,20.6-16.7,0-12.5-9.6-16.9-20.7-16.9H229.5V143.8h11.4c10.7,0,17.3-5.6,17.3-13.9,0-7-5.3-13.3-16.7-13.3a30.319,30.319,0,0,0-20.3,7.9l-7.9-16.1c9.3-6.2,19.3-9.7,33.1-9.7,22.3,0,35,13.3,35,27.8,0,11.3-6,20.3-17.6,24.6v.3c12.1,2.3,21.2,11.6,21.2,26.9,0,19.3-17.1,35.2-42.5,35.2"/>
	<path id="Tracé_19" data-name="Tracé 19" d="M283.5,56.4H28.3A14.19,14.19,0,0,1,14.1,42.2V28.1A14.19,14.19,0,0,1,28.3,13.9H283.4a14.19,14.19,0,0,1,14.2,14.2V42.3a14.084,14.084,0,0,1-14.1,14.1m14.1,226.8V269a14.19,14.19,0,0,0-14.2-14.2H28.3A14.19,14.19,0,0,0,14.1,269v14.2a14.19,14.19,0,0,0,14.2,14.2H283.4a14.19,14.19,0,0,0,14.2-14.2" fill="#6e491e"/>
</svg>
