<svg id="tram_T9_carto_RVB" xmlns="http://www.w3.org/2000/svg" width="311.7" height="311.8" viewBox="0 0 311.7 311.8">
	<path id="Tracé_17" data-name="Tracé 17" d="M28.3,311.8A28.338,28.338,0,0,1,0,283.5V28.3A28.338,28.338,0,0,1,28.3,0H283.4a28.338,28.338,0,0,1,28.3,28.3V283.4a28.338,28.338,0,0,1-28.3,28.3H28.3Z" fill="#fff"/>
	<path id="Tracé_18" data-name="Tracé 18" d="M118.8,121.5V211H94.7V121.4H61.1V101.8h91.3v19.6H118.8ZM198,214a71.086,71.086,0,0,1-16.4-1.9l3.4-18.6a43.113,43.113,0,0,0,15,2.6c15.3,0,26.4-12.2,28-34.2-3.7,3.2-10.8,7.4-22.6,7.4-18.1,0-32.6-11.9-32.6-32.3,0-21.8,14.5-37.9,37.4-37.9,29.9,0,40.5,20.7,40.5,49.6,0,38-17.8,65.3-52.7,65.3m13.1-97.6c-10.8,0-16.4,8.8-16.4,18.3,0,10.2,6.8,17.6,17.6,17.6,7,0,12.5-2.6,14.7-6,1.2-1.9,1.2-6.2,1.2-9.4.1-10.5-6-20.5-17.1-20.5"/>
	<path id="Tracé_19" data-name="Tracé 19" d="M283.5,56.5H28.3A14.19,14.19,0,0,1,14.1,42.3V28.2A14.19,14.19,0,0,1,28.3,14H283.4a14.19,14.19,0,0,1,14.2,14.2V42.4a14.084,14.084,0,0,1-14.1,14.1m14.1,226.8V269.1a14.19,14.19,0,0,0-14.2-14.2H28.3a14.19,14.19,0,0,0-14.2,14.2v14.2a14.19,14.19,0,0,0,14.2,14.2H283.4a14.19,14.19,0,0,0,14.2-14.2" fill="#3c91dc"/>
</svg>
