<svg id="RER_B_couleur_RVB" xmlns="http://www.w3.org/2000/svg" width="283.5" height="283.5" viewBox="0 0 283.5 283.5">
	<path id="Tracé_15" data-name="Tracé 15" d="M219.7,283.5H63.8A63.846,63.846,0,0,1,0,219.7V63.8A63.846,63.846,0,0,1,63.8,0H219.7a63.846,63.846,0,0,1,63.8,63.8V219.7a63.846,63.846,0,0,1-63.8,63.8" fill="#3c91dc"/>
	<path id="Tracé_16" data-name="Tracé 16" d="M138.2,216.7H83.6V66.5h57c28.1,0,54.4,7.7,54.4,38.1,0,15.5-12.3,27.2-24,29.3v.4c15.7,2.1,28.9,14.5,28.9,35.7,0,38-33.2,46.7-61.7,46.7M133.1,91.6H116.7v34.5h16.8c17.4,0,28.9-2.8,28.9-17,.1-13.9-10.1-17.5-29.3-17.5m1.5,58.3H116.7v41.9h19.6c21,0,29.3-6.6,29.3-22.5.1-16.6-15.9-19.4-31-19.4" fill="#fff"/>
</svg>
