<svg id="RER_D_couleur_RVB" xmlns="http://www.w3.org/2000/svg" width="283.5" height="283.5" viewBox="0 0 283.5 283.5">
	<path id="Tracé_13" data-name="Tracé 13" d="M219.7,283.5H63.8A63.846,63.846,0,0,1,0,219.7V63.8A63.846,63.846,0,0,1,63.8,0H219.7a63.846,63.846,0,0,1,63.8,63.8V219.7a63.846,63.846,0,0,1-63.8,63.8" fill="#00643c"/>
	<path id="Tracé_14" data-name="Tracé 14" d="M125.7,216.7H83.4V66.5h43.8c43.8,0,91,9.8,91,71.7,0,65.7-46.5,78.5-92.5,78.5m6.2-124H116.6v98H133c28.9,0,51-11.1,51-50.4,0-42.1-31.7-47.6-52.1-47.6" fill="#fff"/>
</svg>
