<svg id="metro_11_couleur_RVB" xmlns="http://www.w3.org/2000/svg" width="283.5" height="283.5" viewBox="0 0 283.5 283.5">
	<path id="Tracé_17" data-name="Tracé 17" d="M0,141.7A141.711,141.711,0,0,1,141.7,0C220,0,283.5,63.5,283.5,141.7A141.75,141.75,0,1,1,0,141.7" fill="#6e491e"/>
	<path id="Tracé_18" data-name="Tracé 18" d="M89.9,216.6V98.6c-9.2,7.2-23.6,13.8-33.6,18.7l-10.2-23c15.8-6.6,34.7-16.6,49.6-27.9h26.2V216.6Zm125.5,0V66.4H189.2c-14.9,11.3-33.8,21.3-49.6,27.9l10.2,23c10-4.9,24.5-11.5,33.6-18.7V216.7h32Z" fill="#fff"/>
</svg>
