<svg id="metro_18_couleur_RVB" xmlns="http://www.w3.org/2000/svg" width="283.5" height="283.4" viewBox="0 0 283.5 283.4">
	<path id="Tracé_17" data-name="Tracé 17" d="M283.5,141.7A141.75,141.75,0,1,1,141.7,0C220,0,283.5,63.5,283.5,141.7" fill="#00a092" fill-rule="evenodd"/>
	<path id="Tracé_18" data-name="Tracé 18" d="M82.7,216.7V98.7c-9.1,7.2-23.6,14.2-33.6,18.7l-10.2-23c15.7-6.6,34.7-16.6,49.5-27.9h26.2V216.6H82.7Zm105.2,4c-33.4,0-52.3-20-52.3-42.7,0-20,11.3-32.5,25.7-40-13-8.1-21-18.3-21-33.8,0-24.9,22.5-42.1,48.3-42.1,26.4,0,48.3,13,48.3,38.7,0,14-7.2,25.9-21.3,34.4,13.8,6.6,25.9,19.3,25.9,39.1,0,28.5-22.7,46.4-53.6,46.4m-2.5-72.3c-9.8,3.8-19.6,14.5-19.6,26.2,0,12.3,8.1,24,22.5,24,14.2,0,22.1-10,22.1-21.9.1-13.6-12.2-21.9-25-28.3M189,83.8c-11.7,0-19.1,7.2-19.1,17.6,0,12.3,12.3,20,21.9,24,7.9-3.6,16.4-13.4,16.4-22.8,0-10.3-6.9-18.8-19.2-18.8" fill="#fff"/>
</svg>
