<svg id="metro_14_couleur_RVB" xmlns="http://www.w3.org/2000/svg" width="283.5" height="283.4" viewBox="0 0 283.5 283.4">
	<path id="Tracé_17" data-name="Tracé 17" d="M0,141.7A141.775,141.775,0,0,1,141.7,0C220,0,283.5,63.5,283.5,141.7A141.75,141.75,0,0,1,0,141.7" fill="#640082"/>
	<path id="Tracé_18" data-name="Tracé 18" d="M78.3,216.8V98.7c-9.2,7.2-23.6,13.8-33.6,18.7l-10.2-23C50.2,87.9,69.1,77.9,84,66.6h26.2V216.8H78.3Zm146.1-31.2v31.3H194.6V185.6H127V157.7l58.3-91.1h39.2v95.5h17.7v23.4H224.4ZM194.6,93h-.4c-.6,2.5-4.9,11.7-10.9,21.1l-30.6,48.1h41.9Z" fill="#fff"/>
</svg>
