<svg id="metro_7bis_couleur_RVB" xmlns="http://www.w3.org/2000/svg" xmlns:xlink="http://www.w3.org/1999/xlink" width="283.5" height="283.5" viewBox="0 0 283.5 283.5">
	<defs>
		<clipPath id="clip-path">
			<rect id="Rectangle_6" data-name="Rectangle 6" width="283.5" height="283.5"/>
		</clipPath>
	</defs>
	<g id="Groupe_17" data-name="Groupe 17" clip-path="url(#clip-path)">
		<path id="Tracé_17" data-name="Tracé 17" d="M0,141.7A141.775,141.775,0,0,1,141.7,0C220,0,283.5,63.5,283.5,141.7A141.882,141.882,0,0,1,141.7,283.5C63.5,283.5,0,220,0,141.7" fill="#82dc73"/>
	</g>
	<g id="Groupe_18" data-name="Groupe 18" clip-path="url(#clip-path)">
		<path id="Tracé_18" data-name="Tracé 18" d="M150.8,91.1c-33,57.2-53,102.1-53,125.7H63.5c0-19.8,5.3-32.5,18.5-57l36.6-68.1h-73V66.6H150.7V91.1M194,163.4c0,9.8-5.1,23.6-19,23.6a14.821,14.821,0,0,1-9.3-3.3v2H154.6V125.5h11.5V148c2.9-4.2,6.3-7.1,11.8-7.1,11.4-.1,16.1,12,16.1,22.5m-11.9,1.7c0-5.9-1.4-14.4-8.6-14.4a7.426,7.426,0,0,0-5.3,2.2c-1.9,1.9-2.2,3.1-2.2,5.6v14.7c0,3,1.8,5.7,7,5.7,7.3,0,9.1-7.9,9.1-13.8m33.3-34.5c0,3.5-2.4,6-6.4,6-3.9,0-6.4-2.5-6.4-6s2.5-6,6.4-6c4,0,6.4,2.5,6.4,6m-.7,55H203.3V142.2h11.4Zm40.7-13c0-7.2-4.4-10.6-10.6-12.9l-3.8-1.4c-2.1-.7-5.1-2-5.1-4.6,0-2,1.4-4.3,6-4.3a17.632,17.632,0,0,1,8.8,2.6l3.5-8.4a26.491,26.491,0,0,0-11.7-2.8c-10.2,0-17.1,6.5-17.1,14.7,0,6.4,3.8,9.7,9.4,11.9l3.6,1.4c2.4.9,6.4,2,6.4,5.3,0,3.4-3.7,4.5-6.7,4.5a18.743,18.743,0,0,1-10.2-3.3l-3.5,8.4a26.015,26.015,0,0,0,12.8,3.3c11.3,0,18.2-6,18.2-14.4"/>
	</g>
</svg>
