<svg id="metro_16_couleur_RVB" xmlns="http://www.w3.org/2000/svg" xmlns:xlink="http://www.w3.org/1999/xlink" width="283.5" height="283.5" viewBox="0 0 283.5 283.5">
	<defs>
		<clipPath id="clip-path">
			<rect id="Rectangle_6" data-name="Rectangle 6" width="283.5" height="283.5"/>
		</clipPath>
	</defs>
	<g id="Groupe_17" data-name="Groupe 17" clip-path="url(#clip-path)">
		<path id="Tracé_17" data-name="Tracé 17" d="M283.5,141.7A141.75,141.75,0,1,1,141.7,0C220,0,283.5,63.5,283.5,141.7" fill="#ff82b4" fill-rule="evenodd"/>
	</g>
	<g id="Groupe_18" data-name="Groupe 18" clip-path="url(#clip-path)">
		<path id="Tracé_18" data-name="Tracé 18" d="M79.2,216.7V98.7c-9.1,7.2-23.6,14.2-33.6,18.7l-10.2-23c15.7-6.6,34.7-16.6,49.5-27.9h26.2V216.6H79.2Zm109.3,3.6c-41,0-55.7-28.5-55.7-68.3,0-52.1,24.5-89.5,72.5-89.5a98.023,98.023,0,0,1,22.5,2.6l-4.7,25.5c-4-1.7-11.9-3.6-20.6-3.6-21,0-36.4,16.8-38.5,47,5.1-4.5,14.9-10.2,31-10.2,24.9,0,44.9,16.4,44.9,44.4,0,30-19.9,52.1-51.4,52.1m-3-73c-9.6,0-17.2,3.6-20.2,8.3-1.7,2.6-1.7,8.5-1.7,13,0,14.2,8.3,28.1,23.6,28.1,14.9,0,22.5-12.1,22.5-25.1,0-14-9.3-24.3-24.2-24.3"/>
	</g>
</svg>
