<svg id="metro_17_couleur_RVB" xmlns="http://www.w3.org/2000/svg" xmlns:xlink="http://www.w3.org/1999/xlink" width="283.5" height="283.5" viewBox="0 0 283.5 283.5">
	<defs>
		<clipPath id="clip-path">
			<rect id="Rectangle_6" data-name="Rectangle 6" width="283.5" height="283.5"/>
		</clipPath>
	</defs>
	<g id="Groupe_17" data-name="Groupe 17" clip-path="url(#clip-path)">
		<path id="Tracé_17" data-name="Tracé 17" d="M283.5,141.7A141.75,141.75,0,1,1,141.7,0C220,0,283.5,63.5,283.5,141.7" fill="#d2d200" fill-rule="evenodd"/>
	</g>
	<g id="Groupe_18" data-name="Groupe 18" clip-path="url(#clip-path)">
		<path id="Tracé_18" data-name="Tracé 18" d="M75.5,216.7V98.7c-9.1,7.2-23.6,14.2-33.6,18.7l-10.2-23c15.7-6.6,34.7-16.6,49.5-27.9h26.2V216.6H75.5Zm105.7,0H147c0-19.8,5.3-32.5,18.5-57L202,91.6H129.1V66.5H234.2V91c-33,57.2-53,102.1-53,125.7"/>
	</g>
</svg>
