<svg id="metro_9_couleur_RVB" xmlns="http://www.w3.org/2000/svg" xmlns:xlink="http://www.w3.org/1999/xlink" width="283.5" height="283.5" viewBox="0 0 283.5 283.5">
	<defs>
		<clipPath id="clip-path">
			<rect id="Rectangle_6" data-name="Rectangle 6" width="283.5" height="283.5"/>
		</clipPath>
	</defs>
	<g id="Groupe_17" data-name="Groupe 17" clip-path="url(#clip-path)">
		<path id="Tracé_17" data-name="Tracé 17" d="M0,141.7A141.711,141.711,0,0,1,141.7,0C220,0,283.5,63.5,283.5,141.7A141.75,141.75,0,0,1,0,141.7" fill="#d2d200"/>
	</g>
	<g id="Groupe_18" data-name="Groupe 18" clip-path="url(#clip-path)">
		<path id="Tracé_18" data-name="Tracé 18" d="M196.7,131.4c0-39.8-14.7-68.3-55.7-68.3-31.5,0-51.5,22.1-51.5,52.1,0,28.1,20,44.5,44.9,44.5,16.2,0,26-5.7,31.1-10.2-2.1,30.2-17.5,47-38.5,47-8.7,0-16.6-1.9-20.6-3.6l-4.7,25.5a98.943,98.943,0,0,0,22.6,2.6c48,0,72.4-37.5,72.4-89.6m-30.8-16.6c0,4.5,0,10.4-1.7,13-3,4.7-10.6,8.3-20.2,8.3-14.9,0-24.2-10.2-24.2-24.3,0-13,7.7-25.1,22.6-25.1,15.2,0,23.5,13.8,23.5,28.1" fill-rule="evenodd"/>
	</g>
</svg>