<svg id="metro_5_couleur_RVB" xmlns="http://www.w3.org/2000/svg" xmlns:xlink="http://www.w3.org/1999/xlink" width="283.5" height="283.5" viewBox="0 0 283.5 283.5">
	<defs>
		<clipPath id="clip-path">
			<rect id="Rectangle_6" data-name="Rectangle 6" width="283.5" height="283.5"/>
		</clipPath>
	</defs>
	<g id="Groupe_17" data-name="Groupe 17" clip-path="url(#clip-path)">
		<path id="Tracé_17" data-name="Tracé 17" d="M0,141.7A141.775,141.775,0,0,1,141.7,0C220,0,283.5,63.5,283.5,141.7A141.882,141.882,0,0,1,141.7,283.5C63.5,283.5,0,220,0,141.7" fill="#ff5a00"/>
	</g>
	<g id="Groupe_18" data-name="Groupe 18" clip-path="url(#clip-path)">
		<path id="Tracé_18" data-name="Tracé 18" d="M192.7,168.3c0-22.6-16.6-45.7-57.7-47.7-1.5,0-3.4-.2-4.3-.2l2.1-28.5h54.1V66.8H108l-6,78.1c4.9,0,14.9.2,23.4.2,27.7.4,34.9,15.3,34.9,26.2,0,17.7-14.7,24.7-26.4,24.7s-20.2-3.8-28.5-9.6L93.3,209.8c11.5,7,24.9,10.9,42.3,10.9,34.3-.1,57.1-23.7,57.1-52.4"/>
	</g>
</svg>
