<svg id="metro_15_couleur_RVB" xmlns="http://www.w3.org/2000/svg" width="283.5" height="283.4" viewBox="0 0 283.5 283.4">
	<path id="Tracé_17" data-name="Tracé 17" d="M0,141.7A141.75,141.75,0,1,1,141.8,283.4,141.711,141.711,0,0,1,0,141.7" fill="#a50034"/>
	<path id="Tracé_18" data-name="Tracé 18" d="M80.9,216.7V98.7c-9.1,7.2-23.6,14.2-33.6,18.7l-10.2-23c15.7-6.6,34.7-16.6,49.5-27.9h26.2V216.6H80.9Zm97.8,3.6c-17.4,0-30.8-3.8-42.3-10.8l12.1-23.4c8.3,5.7,16.8,9.6,28.5,9.6s26.4-7,26.4-24.7c0-10.8-7.2-25.7-34.9-26.2-8.5,0-18.5-.2-23.4-.2l6-78H230V91.7H176l-2.1,28.5c.9,0,2.8.2,4.3.2,41,1.9,57.6,25.1,57.6,47.6-.1,28.7-22.8,52.3-57.1,52.3" fill="#fff"/>
</svg>
