<svg id="metro_2_couleur_RVB" xmlns="http://www.w3.org/2000/svg" width="283.5" height="283.5" viewBox="0 0 283.5 283.5">
	<path id="Tracé_17" data-name="Tracé 17" d="M0,141.7A141.775,141.775,0,0,1,141.7,0C220,0,283.5,63.5,283.5,141.7A141.882,141.882,0,0,1,141.7,283.5C63.5,283.5,0,220,0,141.7" fill="#0055c8"/>
	<path id="Tracé_18" data-name="Tracé 18" d="M193.9,216.8V191.7H132c1.9-8.7,17-21.9,24.7-28.9,18.1-16.4,34.5-28.5,34.5-54.3,0-30.6-24.9-46-51.3-46-20.2,0-33.6,6-48.1,18.5l15.7,20.8c3.6-4,12.8-13.6,26-13.6,16.4,0,24.9,10.9,24.9,23.8,0,14.5-10.8,25.3-20.8,34.1-20,17.4-37.2,33.4-41.1,50.8v19.8h97.4Z" fill="#fff"/>
</svg>
