<svg id="metro_3_couleur_RVB" xmlns="http://www.w3.org/2000/svg" width="283.5" height="283.5" viewBox="0 0 283.5 283.5">
	<path id="Tracé_17" data-name="Tracé 17" d="M0,141.7A141.775,141.775,0,0,1,141.7,0C220,0,283.5,63.5,283.5,141.7A141.882,141.882,0,0,1,141.7,283.5C63.5,283.5,0,220,0,141.7" fill="#6e6e00"/>
	<path id="Tracé_18" data-name="Tracé 18" d="M194.3,171.6c0-21.1-12.6-33.8-29.2-37v-.4c16-6,24.3-18.3,24.3-33.8,0-20-17.5-38.3-48.1-38.3-18.9,0-32.8,4.9-45.5,13.4l10.9,22.1a41.327,41.327,0,0,1,27.9-10.9c15.8,0,23,8.7,23,18.3,0,11.5-9.1,19.2-23.8,19.2H118V149h15.5c15.3,0,28.5,6,28.5,23.2,0,12.8-10.9,23-28.3,23-12.8,0-23.2-5.3-29.6-9.8L92.4,208.6c10,6,21.9,11.3,43.4,11.3,34.9,0,58.5-21.9,58.5-48.3" fill="#fff"/>
</svg>
