<svg id="metro_8_couleur_RVB" xmlns="http://www.w3.org/2000/svg" xmlns:xlink="http://www.w3.org/1999/xlink" width="283.5" height="283.5" viewBox="0 0 283.5 283.5">
	<defs>
		<clipPath id="clip-path">
			<rect id="Rectangle_6" data-name="Rectangle 6" width="283.5" height="283.5"/>
		</clipPath>
	</defs>
	<g id="Groupe_17" data-name="Groupe 17" clip-path="url(#clip-path)">
		<path id="Tracé_17" data-name="Tracé 17" d="M0,141.7A141.711,141.711,0,0,1,141.7,0C220,0,283.5,63.5,283.5,141.7A141.75,141.75,0,0,1,0,141.7" fill="#d282be"/>
	</g>
	<g id="Groupe_18" data-name="Groupe 18" clip-path="url(#clip-path)">
		<path id="Tracé_18" data-name="Tracé 18" d="M195.4,175c0-19.8-12.1-32.6-26-39.1,14.1-8.5,21.3-20.4,21.3-34.5,0-25.8-21.9-38.7-48.3-38.7-25.7,0-48.3,17.2-48.3,42.1,0,15.5,8.1,25.8,21.1,33.8-14.5,7.4-25.8,20-25.8,40,0,22.8,18.9,42.8,52.3,42.8,30.9,0,53.7-17.9,53.7-46.4M162,103.3c0,9.4-8.5,19.2-16.4,22.8-9.6-4-21.9-11.7-21.9-24,0-10.4,7.4-17.7,19.1-17.7,12.4,0,19.2,8.5,19.2,18.9m2.3,74.1c0,11.9-7.9,21.9-22.1,21.9-14.5,0-22.6-11.7-22.6-24,0-11.7,9.8-22.3,19.6-26.2,12.8,6.3,25.1,14.6,25.1,28.3" fill-rule="evenodd"/>
	</g>
</svg>
